Coordinates
version=1
nRows=12
nColumns=33
inDegrees=yes

Units are S.I. units (second, meters, Newtons, ...)
Angles are in degrees.

endheader
time	ground_thorax_rot_x	ground_thorax_rot_y	ground_thorax_rot_z	ground_thorax_tx	ground_thorax_ty	ground_thorax_tz	clav_prot_r	clav_elev_r	scapula_abduction_r	scapula_elevation_r	scapula_upward_rot_r	scapula_winging_r	shoulder_elv_r	plane_of_elev_r	axial_rot_r	elbow_flexion_r	pro_sup_r	wrist_flex_r	wrist_dev_r	clav_prot_l	clav_elev_l	scapula_abduction_l	scapula_elevation_l	scapula_upward_rot_l	scapula_winging_l	shoulder_elv_l	plane_of_elev_l	axial_rot_l	elbow_flexion_l	pro_sup_l	wrist_flex_l	wrist_dev_l
      2.40000000	    -38.92217276	     -7.03217328	     11.33448868	    -94.32684986	    766.29985590	      5.62502581	      6.07408184	    -45.00000000	     42.14297227	    -45.00000000	    -31.48835350	  -2968.44170120	  -1551.17898471	    144.96507391	    179.99999979	    724.13279092	     48.26179112	     20.46539991	     15.79356175	     19.50363981	     40.32685150	    -44.64532649	    -41.62202108	    -33.69370700	   4039.45286837	  -2813.23993383	     20.52413018	    -59.01968632	    736.63390232	    207.68972615	     -2.41988285	     -5.76275724
      2.41000000	    -38.92501683	     -7.11714684	     11.15004743	    -92.69995902	    765.77514286	      5.69944382	      6.63250243	    -45.00000000	     42.20868353	    -45.00000000	    -31.58894098	  -2968.32722561	  -1551.07912257	    144.77827113	    179.99999979	    724.19024420	     48.61149287	     20.50623756	     15.74464283	     18.92456628	     40.15036298	    -44.69170597	    -41.43018585	    -33.87434820	   4039.46325932	  -2813.23357880	     20.79871026	    -58.36480786	    736.74934542	    206.20648451	     -2.71729030	     -6.05926529
      2.42000000	    -39.00491747	     -7.00091696	     10.84821210	    -91.21471332	    765.37310730	      5.78336508	      6.50934236	    -45.00000000	     42.38457604	    -45.00000000	    -31.11661660	  -2968.26612153	  -1551.22212029	    144.84990345	    179.99999979	    724.21185098	     49.09612986	     20.56187401	     15.62843838	     19.06173976	     40.10721204	    -45.00000000	    -41.16558512	    -33.56174091	   4039.54072847	  -2813.27563432	     20.78436411	    -58.23605936	    736.66487435	    204.24149137	     -2.93134550	     -6.39011646
      2.43000000	    -38.93170231	     -7.10248119	     10.52062463	    -89.87761880	    765.09076769	      5.87223264	      6.66568365	    -45.00000000	     42.66989774	    -45.00000000	    -30.31276401	  -2968.37851762	  -1551.39042553	    144.78550739	    179.99999979	    724.25607960	     49.58101382	     20.61095836	     15.50605055	     18.76326398	     40.17820048	    -44.83682174	    -40.82728088	    -33.06913538	   4039.30168642	  -2813.08176868	     20.48718122	    -58.20123629	    736.72081437	    202.17411618	     -3.15660023	     -6.68073375
      2.44000000	    -38.89299872	     -5.77485330	      8.26348295	    -88.68465507	    764.91676097	      5.96830426	      6.36684933	    -45.00000000	     45.00000000	    -45.00000000	    -25.63517038	  -2969.07659542	  -1551.84713589	    145.28240451	    179.99999979	    724.61150904	     53.37721485	     21.17800315	     14.88012174	     18.64029408	     40.07613008	    -45.00000000	    -39.94296983	    -29.36573542	   4040.19327246	  -2814.18187359	     24.52703699	    -34.58301669	    726.41953251	     15.96279706	      9.68912338	    -17.10192641
      2.45000000	    -38.95265666	     -6.12185284	      8.63984718	    -87.65908538	    764.84094620	      6.07249296	      6.41533432	    -45.00000000	     44.38483450	    -45.00000000	    -26.45446134	  -2968.71911629	  -1551.79214647	    145.21359713	    179.99999979	    724.48214791	     52.46306854	     21.05611589	     14.96452637	     18.43647748	     40.12065584	    -45.00000000	    -39.96806767	    -30.01251287	   4039.84312169	  -2813.92888147	     24.61879136	    -33.71925269	    726.34895573	     16.32050252	      9.89867024	    -17.31323847
      2.46000000	    -39.03143272	     -6.25505582	      8.50852110	    -86.80623809	    764.85091591	      6.19126027	      6.27161272	    -45.00000000	     44.47977416	    -45.00000000	    -26.36318902	  -2968.62196009	  -1551.88498701	    145.20910160	    179.99999979	    724.47551947	     52.07077907	     21.05043378	     14.99988842	     18.75349799	     40.02676181	    -45.00000000	    -39.95470523	    -30.05912477	   4039.81826351	  -2813.99133156	     24.78651414	    -33.28484425	    726.19341488	     16.77234582	      9.85359190	    -17.28192151
      2.47000000	    -39.06400507	     -6.22461556	      8.21993585	    -86.12258337	    764.93531456	      6.32414469	      6.22510787	    -45.00000000	     44.73016684	    -45.00000000	    -25.91002923	  -2968.63155596	  -1551.93341481	    145.22960575	    179.99999979	    724.51503025	     51.98176903	     21.09330279	     14.99240454	     18.76100610	     40.02655657	    -45.00000000	    -39.85063949	    -29.73776950	   4039.82915139	  -2814.02113800	     24.86724617	    -32.98335323	    726.15649220	     17.19715919	      9.83112364	    -17.31372906
      2.48000000	    -39.14388919	     -6.30904204	      8.08197531	    -85.62137568	    765.08151360	      6.47090856	      6.23458074	    -45.00000000	     44.92008249	    -45.00000000	    -25.43603217	  -2968.58399401	  -1552.06540319	    145.43078292	    179.99999979	    724.55819066	     52.01344621	     21.23461757	     14.99091743	     18.61977606	     40.04396990	    -45.00000000	    -39.97941485	    -29.26995344	   4039.47270074	  -2814.13198473	     24.44152505	    -32.78766860	    726.06928917	     17.50435923	      9.86554356	    -17.34825508
      2.49000000	    -39.14017547	     -6.06760315	      7.49828418	    -85.28418544	    765.28096437	      6.62653159	      6.15991160	    -45.00000000	     45.00000000	    -45.00000000	    -24.92518817	  -2968.60930866	  -1552.00363514	    145.18715012	    179.99999979	    724.65485970	     52.11692953	     21.27725543	     14.96382597	     18.82154146	     40.05761748	    -45.00000000	    -39.70063427	    -28.90175209	   4039.94662398	  -2814.26241255	     25.04589658	    -32.66533089	    726.02715645	     17.76730543	      9.80422487	    -17.33292995
      2.50000000	    -39.23072661	     -6.15009602	      7.42004444	    -85.10415303	    765.52197212	      6.78083664	      6.07743904	    -45.00000000	     45.00000000	    -45.00000000	    -24.78035623	  -2968.45160817	  -1552.06156671	    145.37037706	    179.99999979	    724.75712479	     52.25022401	     21.44395189	     14.95412991	     18.53650690	     40.22304591	    -45.00000000	    -39.78466341	    -28.48600128	   4039.55962305	  -2814.12114045	     24.50513712	    -32.59553590	    726.11899113	     18.05016664	      9.86188426	    -17.42228657
      2.51000000	    -39.27912922	     -5.99753452	      7.05547624	    -85.05729681	    765.79973769	      6.92348284	      6.08707322	    -45.00000000	     45.00000000	    -45.00000000	    -24.67563442	  -2968.49242521	  -1552.01931191	    145.12544208	    179.99999979	    724.84915812	     52.40622642	     21.51719394	     14.91564194	     18.73806419	     40.15370633	    -45.00000000	    -39.71923247	    -28.27724555	   4039.98730527	  -2814.41501610	     25.12825997	    -32.56569022	    726.04274392	     18.29063518	      9.76049347	    -17.38882611
